<?xml version="1.0" encoding="UTF-8"?> <svg xmlns="http://www.w3.org/2000/svg" width="669" height="352" viewBox="0 0 669 352" fill="none"><path d="M100.682 74C44.597 74 0 119.845 0 175.689C0 232.144 44.597 278 100.682 278C157.062 278 201.061 232.152 201.061 175.706C201.07 119.862 157.062 74 100.682 74ZM100.682 117.164C146.475 117.164 180.022 146.279 194.198 175.706C180.022 205.583 146.475 234.836 100.682 234.836C54.592 234.836 21.3138 205.573 7.14709 175.706C21.3138 146.289 54.6016 117.182 100.682 117.182V117.164ZM100.682 121.792C70.8494 121.792 46.5272 145.965 46.5272 175.689C46.5272 205.861 70.8494 229.906 100.682 229.906C130.514 229.906 154.516 205.86 154.516 175.706C154.516 145.983 130.514 121.792 100.682 121.792Z" fill="white"></path><path d="M297.315 86.1035C244.658 86.1035 207.959 126.123 207.959 174.798V175.386C207.959 224.664 245.406 263.653 295.982 263.653C328.945 263.653 348.641 251.85 366.244 232.878L342.225 208.706C328.793 220.94 316.697 228.873 297.155 228.873C267.772 228.873 247.339 204.207 247.339 174.798V174.353C247.339 144.936 268.221 120.884 297.155 120.884C314.31 120.884 327.737 128.203 341.016 140.303L365.035 112.518C349.074 96.8438 329.687 86.1035 297.315 86.1035Z" fill="white"></path><path d="M380.449 89.0762V260.645H462.036C500.661 260.645 526.165 244.985 526.165 213.637V213.032C526.165 190.037 513.948 178.526 494.092 170.918C506.33 164.056 516.617 153.306 516.617 133.895V133.45C516.617 121.637 512.734 112.084 504.83 104.17C494.997 94.4694 479.631 89.0762 460.081 89.0762H380.449ZM417.127 122.076H454.427C470.388 122.076 479.175 128.497 479.175 139.698V140.303C479.175 152.995 468.591 158.37 451.885 158.37L417.127 158.387V122.076ZM417.127 189.75H460.845C480.071 189.75 488.722 196.924 488.722 208.422V209.009C488.722 221.701 478.59 227.521 462.036 227.521L417.127 227.538V189.75Z" fill="white"></path><path d="M600.107 86.5488C565.206 86.5488 540.157 107.15 540.157 138.345V138.808C540.157 172.871 562.516 182.434 596.978 191.245C625.617 198.7 631.576 203.475 631.576 213.032V213.637C631.576 223.634 622.17 229.764 606.81 229.764C587.116 229.764 571.012 221.684 555.642 208.992L533.276 235.726C553.858 254.096 580.107 263.066 606.063 263.066V263.049C643.055 263.049 669 243.924 669 209.899V209.454C669 179.444 649.319 167.023 614.561 157.925C585.035 150.298 577.563 146.574 577.563 135.373V134.928C577.563 126.565 585.173 119.852 599.645 119.852C614.117 119.852 629.035 126.261 644.252 136.85L663.791 108.353C646.483 94.4663 625.166 86.5488 600.107 86.5488Z" fill="white"></path></svg> 