<?xml version="1.0" encoding="UTF-8"?> <svg xmlns="http://www.w3.org/2000/svg" width="698" height="362" viewBox="0 0 698 362" fill="none"><path d="M126.244 306.268C195.389 306.268 251.443 250.183 251.443 181C251.443 111.817 195.389 55.7324 126.244 55.7324C57.0988 55.7324 1.04541 111.817 1.04541 181C1.04541 250.183 57.0988 306.268 126.244 306.268Z" fill="#009BFF"></path><path d="M322.984 151.949C326.933 152.182 330.766 150.671 333.553 147.882C336.108 144.628 337.386 140.445 336.921 136.262V86.4102H359.569V136.262C360.149 145.79 356.549 155.087 349.813 161.71C342.38 167.985 332.74 171.239 322.984 170.658C313.229 171.239 303.589 167.985 296.156 161.71C289.188 155.087 285.355 145.79 285.82 136.262V86.4102H308.467V136.262C308.235 140.445 309.512 144.512 312.183 147.766C314.971 150.671 318.92 152.182 322.984 151.949ZM404.631 170.774C398.127 170.774 391.623 169.612 385.468 167.288C379.545 165.08 373.97 161.71 369.324 157.411L380.241 143.582C383.493 146.488 387.094 148.812 391.159 150.438C395.456 152.182 399.985 152.995 404.515 152.995C407.186 153.111 409.857 152.53 412.18 151.252C413.922 150.206 415.083 148.231 414.967 146.139C414.967 143.931 413.69 141.839 411.715 140.91C408.115 138.818 404.166 137.307 400.101 136.262L394.991 134.867C388.603 133.473 382.796 130.451 378.035 125.919C374.086 121.852 371.995 116.275 372.228 110.581C372.228 105.816 373.738 101.052 376.525 97.2171C379.428 93.2662 383.377 90.1287 388.023 88.2695C393.365 86.0616 399.172 84.8996 404.863 85.0158C411.018 85.0158 417.058 86.1778 422.749 88.5019C428.323 90.7097 433.55 93.731 438.079 97.682L426.813 111.859C423.678 109.186 420.193 106.978 416.477 105.351C412.877 103.608 408.812 102.563 404.747 102.563C402.192 102.446 399.521 102.911 397.198 104.189C395.34 105.119 394.178 107.211 394.294 109.302C394.41 111.278 395.34 113.137 397.082 114.299C399.985 116.158 403.353 117.553 406.721 118.25L412.877 119.993C419.961 121.504 426.581 124.99 431.691 129.987C435.292 134.054 437.266 139.283 437.266 144.744C437.382 149.625 435.872 154.506 433.201 158.573C430.298 162.524 426.233 165.661 421.703 167.52C416.361 169.844 410.554 170.89 404.631 170.774ZM505.905 169.147L500.678 154.157H469.785L464.559 169.612H442.26L472.572 86.875H498.82L528.668 169.147H505.905ZM474.895 136.959H494.523L485.232 108.024L474.895 136.959ZM310.325 275.241V210.748H285.704V192.853H357.246V210.748H332.973V275.241H310.325ZM404.863 276.752C397.198 276.868 389.533 275.009 382.796 271.29C376.525 267.688 371.299 262.459 367.698 256.068C363.866 249.328 361.891 241.658 362.124 233.873C362.007 228.063 363.053 222.136 365.143 216.675C367.118 211.562 370.253 206.913 374.086 203.079C377.919 199.244 382.564 196.223 387.674 194.131C398.708 189.948 410.902 189.948 421.936 194.131C427.046 196.223 431.575 199.244 435.524 203.079C439.357 206.913 442.492 211.562 444.467 216.675C446.789 222.136 448.067 227.946 448.183 233.873C448.299 241.658 446.441 249.328 442.608 256.068C439.008 262.459 433.666 267.572 427.278 271.174C420.426 275.009 412.644 276.984 404.863 276.752ZM404.863 258.159C408.579 258.275 412.18 257.23 415.199 255.138C418.219 253.046 420.658 250.025 422.168 246.655C423.91 242.704 424.839 238.405 424.723 233.989C424.839 229.689 423.91 225.39 422.168 221.323C420.658 217.72 418.335 214.699 415.199 212.375C408.928 208.192 400.682 208.192 394.41 212.375C391.275 214.699 388.952 217.72 387.442 221.323C385.7 225.274 384.771 229.573 384.887 233.989C384.771 238.288 385.7 242.588 387.442 246.655C388.952 250.025 391.391 253.046 394.41 255.138C397.43 257.113 401.147 258.159 404.863 258.159ZM460.726 275.241V192.504H493.362C500.911 192.388 508.46 194.131 515.08 197.733C521.235 201.103 526.345 206.216 529.829 212.259C536.914 225.738 536.914 241.775 529.829 255.138C526.345 261.297 521.235 266.294 515.08 269.663C508.46 273.266 500.911 275.125 493.362 274.893L460.726 275.241ZM483.025 257.346H493.362C498.82 257.578 504.046 255.138 507.414 250.955C511.015 246.074 512.873 240.032 512.641 233.989C512.873 227.946 511.015 221.904 507.414 217.023C504.046 212.724 498.82 210.4 493.362 210.632H483.025V257.346ZM601.836 275.241L596.61 259.786H565.6L560.374 275.241H538.075L568.388 192.504H594.635L624.948 275.241H601.836ZM571.407 242.937H591.151L581.395 214.002L571.407 242.937ZM668.616 245.377V275.125H645.621V245.377L616.354 192.388H641.904L657.235 225.622L672.449 192.853H698L668.616 245.377Z" fill="white"></path></svg> 