<?xml version="1.0" encoding="UTF-8"?> <svg xmlns="http://www.w3.org/2000/svg" width="367" height="362" viewBox="0 0 367 362" fill="none"><g clip-path="url(#clip0_105_278)"><path d="M183.487 28.0191C177.765 13.7223 163.827 -1.71804 137.723 0.402798C104.471 4.02086 94.1082 35.9144 99.1325 54.9418C85.8893 45.9662 63.3687 42.0192 43.7119 58.8707C18.3326 84.333 31.9077 118.767 45.8595 127.027C30.4829 125.602 6.1816 136.001 0.805243 163.202C-4.91405 196.975 20.8108 216.663 45.8595 216.663H323.627C352.592 216.663 368.665 191.584 366.861 167.932C364.019 137.064 335.795 125.22 320.4 127.758C333.262 120.576 350.442 86.8373 324.32 60.3141C303.585 40.5757 277.151 47.7568 267.857 56.3664C272.868 39.877 264.652 5.79135 231.02 0.39956C228.698 0.139231 226.459 0 224.326 0C198.652 0.00259034 187.11 18.7845 183.487 28.0191Z" fill="white"></path><path d="M48.3388 64.2451C33.6734 77.5316 28.3359 107.637 54.7725 125.235L160.237 197.652L109.1 80.4004C98.3851 52.7317 69.071 46.6981 48.3388 64.2451Z" fill="#F37021"></path><path d="M139.124 7.23732C121.981 7.58636 96.239 28.0183 107.695 59.2177L160.582 184.053L179.168 52.7502C183.469 20.1243 158.799 5.06337 139.124 7.23732Z" fill="#CC004C"></path><path d="M187.423 47.7431H197.423C197.423 47.7431 202.764 47.7431 203.49 50.2641C199.555 53.4807 188.842 53.8835 190.264 71.0652L207.077 184.036L259.605 58.8725C270.349 30.926 247.796 7.58636 227.79 6.87272C226.857 6.80537 225.918 6.75098 224.949 6.75098C206.992 6.75033 186.415 19.8108 187.423 47.7431Z" fill="#6460AA"></path><path d="M257.49 81.4629L207.806 197.307L313.241 124.509C337.545 107.256 333.625 79.6723 320.02 66.0387C314.317 59.6218 303.845 54.6646 292.752 54.6646C279.646 54.6626 265.62 61.6196 257.49 81.4629Z" fill="#0089D0"></path><path d="M301.437 140.992L202.42 210.211H324.337C349.349 210.211 365.423 184.399 358.278 160.713C353.492 145.826 339.333 134.139 322.898 134.122C315.981 134.125 308.644 136.211 301.437 140.992Z" fill="#0DB14B"></path><path d="M45.4977 210.211H165.615L66.5748 140.992C43.6951 126.279 17.9663 134.888 8.67856 159.303C0.805884 187.253 20.4627 210.211 45.4977 210.211Z" fill="#FCB711"></path><path d="M178.522 304.915H200.805C205.927 305.238 215.007 309.714 215.007 320.314C215.007 331.402 205.584 335.875 200.478 336.38H178.522V304.915ZM178.182 255.556H196.524C202.793 255.895 210.206 260.531 210.206 269.14C210.206 277.583 204.601 283.211 197.35 284.214H178.182V255.556ZM153.106 235.015V356.9H212.198C226.223 356.9 242.896 342.832 242.896 324.448C242.896 305.241 230.358 295.807 222.425 291.995C222.425 291.995 236.951 283.551 236.305 265.329C235.644 240.818 213.02 235.015 205.264 235.015H153.106Z" fill="white"></path><path d="M62.4721 356.9V286.698L139.064 361.537V235.015H113.326V303.422L36.7168 230.059V356.9H62.4721Z" fill="white"></path><path d="M247.034 294.638C247.679 333.182 275.351 362 310.925 362C319.359 362 328.245 360.402 337.327 356.9V332.065C330.129 336.467 322.121 338.589 314.274 338.589C292.747 338.589 272.434 322.646 273.275 293.648C274.726 270.125 293.967 253.882 314.704 253.882C322.297 253.882 330.108 256.072 337.327 260.855V236.686C328.91 233.271 320.543 231.744 312.484 231.744C277 231.743 247.715 261.7 247.034 294.638Z" fill="white"></path></g><defs><clipPath id="clip0_105_278"><rect width="367" height="362" fill="white"></rect></clipPath></defs></svg> 